<svg xmlns="http://www.w3.org/2000/svg"
     width="512pt" height="512pt"
     viewBox="0 0 512 512"
     preserveAspectRatio="xMidYMid meet">
  <g transform="translate(0,512) scale(0.1,-0.1)"
     fill="#000000" stroke="none">
<path d="M2916 4850 l-168 -5 -37 -41 c-20 -23 -385 -414 -811 -869 -426 -455
-779 -836 -783 -848 -5 -12 -7 -105 -5 -206 l3 -184 -464 -496 c-255 -273
-488 -522 -517 -553 l-54 -57 0 -189 c0 -256 -20 -236 237 -242 l198 -5 -155
-165 c-85 -91 -182 -195 -217 -232 l-63 -66 0 -191 c0 -190 0 -192 25 -216
l24 -25 752 0 752 0 103 108 103 107 1 -83 c0 -74 3 -85 25 -107 l24 -25 751
0 750 0 34 32 c19 18 366 389 772 823 406 435 762 816 791 847 l53 57 0 188
c0 197 0 195 -43 235 -1 1 -90 4 -197 7 l-195 6 165 175 c90 96 188 201 217
232 l53 57 0 190 c0 186 0 190 -24 218 l-24 28 -418 -4 c-479 -4 -437 -16
-327 101 l63 66 0 194 c0 257 19 238 -238 238 -106 0 -192 3 -192 6 0 6 65 75
367 396 l63 66 0 200 0 201 -26 20 c-26 21 -33 21 -613 19 -322 -1 -662 -5
-755 -8z m1073 -210 c-30 -33 -353 -382 -719 -774 l-665 -714 -610 -1 -609 -1
36 38 c19 20 343 366 718 767 l684 730 395 5 c218 3 492 6 610 8 l214 2 -54
-60z m108 -209 c-30 -31 -350 -373 -713 -761 -633 -676 -659 -703 -662 -671
-3 26 4 41 40 79 23 26 344 371 713 766 l670 719 3 -38 c3 -34 -2 -44 -51 -94z
m-103 -693 c-47 -49 -1385 -1480 -1389 -1486 -1 -1 -77 -1 -168 0 l-166 3 191
205 c106 113 197 206 203 208 6 1 247 255 535 562 l523 560 161 0 160 0 -50
-52z m108 -202 c-27 -28 -348 -370 -713 -761 -635 -679 -664 -708 -667 -677
-4 39 -77 -42 773 865 640 683 650 694 653 659 3 -30 -3 -42 -46 -86z m637
-375 c-13 -17 -337 -365 -719 -775 l-695 -745 -610 -1 -609 0 59 60 59 60 206
0 c113 0 215 3 226 6 12 3 320 325 685 715 l664 709 379 0 379 0 -24 -29z
m103 -215 c-30 -32 -1354 -1447 -1394 -1491 -6 -6 -8 6 -6 32 3 40 29 70 718
808 l715 767 3 -37 c3 -32 -2 -44 -36 -79z m-2292 -41 l0 -75 -635 0 -635 0 0
75 0 75 635 0 635 0 0 -75z m-1036 -277 c-16 -18 -97 -105 -180 -193 -82 -88
-166 -179 -187 -203 l-37 -42 0 -184 c0 -181 1 -185 24 -213 l24 -28 255 -5
254 -5 -52 -58 -52 -57 -606 2 -605 3 475 508 475 507 121 0 121 0 -30 -32z
m476 -173 l0 -205 -75 0 -75 0 0 205 0 205 75 0 75 0 0 -205z m-320 -60 l0
-145 -141 0 -141 0 138 145 c75 80 138 145 140 145 2 0 4 -65 4 -145z m3038
-174 c-35 -39 -360 -387 -723 -775 l-660 -705 -169 -1 -168 0 113 122 c63 68
186 195 274 283 88 89 367 382 620 653 l460 492 158 0 159 0 -64 -69z m134
-175 c-21 -23 -308 -329 -637 -681 -329 -352 -636 -680 -683 -730 l-83 -89 3
41 c3 40 33 73 718 805 696 743 715 762 718 729 3 -28 -3 -41 -36 -75z m-2292
-41 l0 -75 -635 0 -635 0 0 75 0 75 635 0 635 0 0 -75z m-641 -313 c-35 -37
-101 -106 -146 -154 l-83 -88 0 38 c0 33 11 49 111 155 101 107 114 117 147
117 l35 0 -64 -68z m-389 -292 l0 -80 -640 0 -640 0 0 80 0 80 640 0 640 0 0
-80z m1760 0 l0 -80 -640 0 -640 0 0 80 0 80 640 0 640 0 0 -80z m-1418 -216
c9 -9 33 -20 52 -23 l36 -6 -192 -207 -193 -207 -169 -1 -168 0 103 112 c57
62 194 203 304 314 l200 202 5 -83 c4 -61 10 -89 22 -101z m-902 -234 l0 -210
-80 0 -80 0 0 210 0 210 80 0 80 0 0 -210z m1244 158 c-42 -44 -486 -519 -516
-553 -6 -6 -8 6 -6 32 3 39 17 57 252 307 236 252 250 266 284 266 l36 0 -50
-52z m516 -158 l0 -210 -80 0 -80 0 0 210 0 210 80 0 80 0 0 -210z m-320 -45
l0 -165 -156 0 -156 0 154 164 c84 90 154 164 156 165 1 1 2 -73 2 -164z
m-1763 -162 c-2 -2 -67 -2 -143 -1 l-139 3 140 149 140 148 3 -147 c1 -81 1
-150 -1 -152z m883 -243 l0 -80 -640 0 -640 0 0 80 0 80 640 0 640 0 0 -80z
m1760 0 l0 -80 -640 0 -640 0 0 80 0 80 640 0 640 0 0 -80z"/>
</g>
</svg>
